<svg width="151" height="151" viewBox="0 0 151 151" fill="none" xmlns="http://www.w3.org/2000/svg">
<path d="M16.8022 117.357L0.140259 134.019L16.8022 150.681L33.4642 134.019L16.8022 117.357Z" fill="#094046"/>
<path d="M133.438 0.721091L116.776 17.3831L133.438 34.045L150.1 17.3831L133.438 0.721091Z" fill="#094046"/>
<path d="M141.771 75.7006L125.108 59.0375L108.446 42.3757L91.7829 25.7126L75.1226 9.05225L58.4594 25.7154L41.7977 42.3786L25.1345 59.0417L8.47278 75.7021L25.1359 92.3652L41.7991 109.028L58.4608 125.692L75.124 142.355L91.7872 125.692L108.45 109.028L125.112 92.3652L141.771 75.7006ZM91.7843 92.3638L75.1212 109.027L58.458 92.3638L41.7963 75.7006L58.458 59.0375L75.1212 42.3743L91.7843 59.0375L108.447 75.7006L91.7843 92.3638Z" fill="#094046"/>
<path d="M133.417 117.389L116.755 134.051L133.417 150.713L150.079 134.051L133.417 117.389Z" fill="#094046"/>
<path d="M16.7621 0.732566L0.100098 17.3945L16.7621 34.0565L33.424 17.3945L16.7621 0.732566Z" fill="#094046"/>
</svg>
